<svg width="32" height="32" viewBox="0 0 32 32" fill="none" xmlns="http://www.w3.org/2000/svg">
<path fill-rule="evenodd" clip-rule="evenodd" d="M28.4854 18.6216L26.3134 9.3377C26.1715 8.88385 25.8275 8.51479 25.3981 8.28786L16.6795 4.14214C16.451 4.02868 16.1936 4 15.9651 4C15.7366 4 15.4792 4 15.2507 4.05611L6.52969 8.23051C6.31493 8.32802 6.12579 8.47351 5.97703 8.65563C5.82827 8.83775 5.72393 9.05155 5.67215 9.28034L3.52767 18.6216C3.4423 19.1041 3.55655 19.5867 3.84156 19.9844L9.87447 27.3943C10.2172 27.7347 10.7031 27.9629 11.189 27.9916H20.7952C21.31 28.0477 21.7959 27.8208 22.111 27.3943L28.1439 19.9844C28.4289 19.5867 28.5432 19.1041 28.4854 18.6216ZM24.9134 19.2463C24.8557 19.2463 24.828 19.2463 24.7703 19.2176C24.7427 19.1889 24.7427 19.1889 24.7138 19.1889C24.6803 19.1889 24.6569 19.1797 24.6373 19.1719C24.6231 19.1663 24.6109 19.1615 24.5983 19.1615C24.5124 19.1399 24.4428 19.1029 24.365 19.0614C24.3394 19.0478 24.3127 19.0336 24.2844 19.0194C24.2235 19.0139 24.1647 18.9947 24.1124 18.9633H24.0848C23.7887 18.8488 23.4822 18.7632 23.1695 18.7076H23.1418C23.0575 18.7055 22.9756 18.7359 22.9133 18.7924C22.9133 18.7924 22.9133 18.8211 22.8845 18.8211L22.6547 18.7912C22.1295 20.407 21.0321 21.779 19.566 22.6526L19.6514 22.8796C19.6514 22.8796 19.6238 22.8796 19.6238 22.907C19.598 22.9493 19.5821 22.9968 19.5773 23.046C19.5725 23.0952 19.579 23.1449 19.5962 23.1913C19.7104 23.4755 19.8536 23.7586 20.0532 24.0142V24.0703C20.0998 24.1102 20.1386 24.1584 20.1674 24.2124C20.25 24.2951 20.3175 24.3912 20.3671 24.4967C20.396 24.5241 20.4248 24.5528 20.4248 24.5815C20.4248 24.5815 20.4525 24.5815 20.4525 24.6089C20.505 24.745 20.515 24.8935 20.4813 25.0353C20.4642 25.1029 20.4322 25.1658 20.3877 25.2197C20.3432 25.2736 20.2873 25.3171 20.2239 25.347C20.2052 25.353 20.1879 25.3591 20.1712 25.3649C20.1119 25.3856 20.0618 25.4031 19.9942 25.4031C19.8814 25.3989 19.7718 25.3652 19.6763 25.3054C19.5809 25.2457 19.503 25.162 19.4505 25.0628C19.4229 25.0628 19.4229 25.0353 19.4229 25.0353C19.4097 25.0216 19.4028 25.0082 19.3959 24.9948C19.3884 24.9802 19.3809 24.9655 19.3652 24.9505C19.3087 24.8658 19.2798 24.7523 19.2509 24.6388L19.1931 24.468V24.4406C19.0993 24.1355 18.9748 23.8406 18.8215 23.5603C18.7664 23.4799 18.6861 23.4198 18.593 23.3895C18.593 23.3752 18.593 23.368 18.5894 23.3644C18.5858 23.3608 18.5785 23.3608 18.5641 23.3608L18.4499 23.1626C18.3754 23.1847 18.2989 23.2087 18.221 23.2331C17.9997 23.3026 17.7667 23.3758 17.5346 23.4182C17.0198 23.5603 16.505 23.6164 15.9915 23.6164C15.141 23.6224 14.2971 23.4684 13.5043 23.1626L13.39 23.3895C13.39 23.4039 13.39 23.411 13.3864 23.4146C13.3828 23.4182 13.3756 23.4182 13.3611 23.4182C13.2679 23.4482 13.1875 23.5084 13.1326 23.589L13.1289 23.5963C12.987 23.8781 12.8456 24.159 12.761 24.4693L12.7045 24.6401C12.69 24.6968 12.6687 24.7464 12.6473 24.7959C12.626 24.8455 12.6047 24.8951 12.5902 24.9518L12.5839 24.9583C12.5584 24.9846 12.5337 25.0101 12.5337 25.0366C12.5048 25.0366 12.5048 25.064 12.5048 25.064C12.4527 25.1635 12.3749 25.2474 12.2793 25.3072C12.1838 25.367 12.074 25.4005 11.9612 25.4044C11.8916 25.3986 11.8239 25.3795 11.7616 25.3483C11.6325 25.2732 11.5371 25.1521 11.4947 25.0097C11.4522 24.8673 11.466 24.7142 11.533 24.5815C11.5619 24.5815 11.5619 24.5528 11.5619 24.5528C11.5754 24.5388 11.5823 24.5251 11.5892 24.5114C11.5964 24.497 11.6037 24.4827 11.6184 24.468C11.6561 24.4179 11.6884 24.3678 11.7176 24.3225C11.7546 24.2653 11.7865 24.2158 11.8181 24.1837L11.8281 24.1736C11.8781 24.1229 11.9052 24.0955 11.9323 24.0416V24.0129C12.1122 23.7547 12.2654 23.4789 12.3893 23.19C12.406 23.1435 12.412 23.0938 12.407 23.0447C12.402 22.9955 12.3861 22.9481 12.3605 22.9057C12.3605 22.9057 12.3328 22.9057 12.3328 22.8783L12.476 22.6788C12.2015 22.5353 11.9427 22.364 11.7038 22.1676C10.6026 21.3209 9.78542 20.1629 9.35969 18.846L9.10231 18.8735C9.10231 18.8735 9.10231 18.846 9.07343 18.846C9.01144 18.7891 8.92935 18.7586 8.84492 18.7613H8.8173C8.4954 18.8159 8.17961 18.9015 7.87438 19.0169H7.84425C7.78775 19.0169 7.72999 19.0455 7.67224 19.0742C7.63905 19.0849 7.60149 19.1001 7.56127 19.1163C7.49803 19.1419 7.42818 19.1702 7.35835 19.1877C7.35008 19.1877 7.33654 19.1852 7.3216 19.1825C7.28664 19.1762 7.24409 19.1685 7.24409 19.1877C7.24409 19.2164 7.24409 19.2164 7.21522 19.2164C7.15872 19.245 7.12984 19.245 7.07208 19.245C6.9444 19.2585 6.81613 19.2256 6.71092 19.1525C6.6057 19.0794 6.53064 18.971 6.49956 18.8473C6.48529 18.7745 6.48587 18.6996 6.50125 18.627C6.51663 18.5545 6.54651 18.4857 6.58912 18.4248C6.63172 18.3639 6.68619 18.3121 6.74931 18.2724C6.81242 18.2328 6.8829 18.2061 6.95657 18.194C6.98545 18.1653 6.98545 18.1653 7.01433 18.1653C7.04728 18.1653 7.07083 18.156 7.09047 18.1482C7.10451 18.1426 7.11655 18.1378 7.12858 18.1378C7.18571 18.1378 7.24284 18.1307 7.29997 18.1235C7.35709 18.1163 7.41422 18.1092 7.47135 18.1092C7.52785 18.0817 7.5856 18.0817 7.64336 18.0817C7.97195 18.0551 8.29731 17.9979 8.61515 17.9109L8.62272 17.9058C8.70559 17.8502 8.78802 17.7949 8.81604 17.7114C8.81604 17.7114 8.84366 17.7114 8.84366 17.684L9.07217 17.6266C8.81479 16.0083 9.18643 14.3624 10.0728 12.971C10.0868 12.9426 10.1011 12.9213 10.1155 12.8997C10.1297 12.8785 10.1439 12.8572 10.1582 12.8288L9.99374 12.6642C10.0063 12.5832 9.95482 12.4835 9.90335 12.4323C9.67484 12.2054 9.38857 12.0346 9.10231 11.865L8.93155 11.779C8.82344 11.7283 8.71823 11.6717 8.61641 11.6094C8.58879 11.6094 8.53103 11.5533 8.53103 11.5533C8.53103 11.5533 8.53103 11.5246 8.50341 11.5246C8.39021 11.4283 8.3161 11.2944 8.29485 11.1478C8.2736 11.0013 8.30667 10.8521 8.3879 10.7279C8.47328 10.5858 8.61641 10.5297 8.78842 10.5297C8.93382 10.5332 9.07424 10.583 9.18894 10.6718L9.21782 10.7005C9.23147 10.714 9.24544 10.7209 9.25956 10.7278C9.274 10.7349 9.28859 10.7421 9.30319 10.7566C9.34505 10.7988 9.38027 10.8407 9.41537 10.8824C9.45184 10.9258 9.48819 10.969 9.5317 11.0122C9.5399 11.02 9.55032 11.0279 9.5617 11.0365C9.59042 11.0582 9.62528 11.0846 9.64596 11.1257C9.84559 11.3526 10.103 11.5795 10.3604 11.779L10.3641 11.7808C10.4194 11.8077 10.4759 11.8351 10.5324 11.8351C10.5653 11.8351 10.5889 11.8254 10.6085 11.8172C10.6226 11.8114 10.6346 11.8064 10.6466 11.8064H10.6755L10.8475 11.9199C11.79 10.919 13.0164 10.2259 14.3643 9.93243L14.4823 9.9126C14.7798 9.86245 15.0575 9.81565 15.3361 9.7903L15.365 9.56337V9.50726C15.4498 9.45151 15.4789 9.36621 15.5076 9.28195L15.5081 9.28034C15.5081 8.93996 15.5081 8.627 15.4516 8.31529V8.28661C15.4516 8.23051 15.4516 8.17315 15.4227 8.1158C15.3899 8.00507 15.3709 7.89075 15.3662 7.77541V7.63452C15.3662 7.49238 15.4227 7.35024 15.5382 7.23678C15.6814 7.09464 15.8521 7.00986 16.0241 7.03853C16.1662 7.0581 16.2954 7.13056 16.3856 7.24123C16.4758 7.3519 16.5203 7.49249 16.51 7.63452V7.80534C16.4953 7.86333 16.4881 7.92132 16.4808 7.97931C16.4739 8.03478 16.467 8.09025 16.4535 8.14572C16.4535 8.17378 16.4463 8.20214 16.4391 8.23051C16.4319 8.25887 16.4247 8.28724 16.4247 8.31529V8.34397C16.3644 8.68435 16.3644 8.99731 16.3644 9.30902L16.366 9.3136C16.3943 9.39685 16.4225 9.47962 16.5075 9.53594V9.50726L16.5364 9.73419C17.8891 9.87447 19.1759 10.3856 20.2528 11.2104C20.365 11.3212 20.4835 11.432 20.602 11.5428C20.7261 11.6589 20.8503 11.7751 20.9672 11.8912L21.197 11.7491H21.2246C21.2522 11.7777 21.31 11.7777 21.3389 11.7777C21.3932 11.7777 21.4464 11.7524 21.5006 11.7265L21.5109 11.7216C21.7683 11.5508 22.0257 11.3239 22.2253 11.097C22.2341 11.0878 22.2459 11.0787 22.2589 11.0687C22.2868 11.0472 22.3199 11.0218 22.3395 10.9835C22.3973 10.8987 22.4827 10.8127 22.5693 10.7279C22.5969 10.7279 22.6258 10.7005 22.6547 10.6718L22.6823 10.6431C22.7969 10.555 22.9367 10.5053 23.0816 10.501C23.2247 10.501 23.3967 10.5858 23.4821 10.7005C23.6817 10.9561 23.624 11.2965 23.3678 11.4947C23.3678 11.5057 23.3719 11.5124 23.3753 11.5182C23.3809 11.5276 23.3849 11.5343 23.3678 11.5521C23.3539 11.5653 23.3399 11.5722 23.3261 11.579C23.3113 11.5862 23.2967 11.5934 23.2825 11.6082C23.2215 11.6378 23.1689 11.6678 23.116 11.6979C23.0687 11.7249 23.0212 11.7519 22.9673 11.779L22.7953 11.8638C22.5107 12.0271 22.2424 12.217 21.9943 12.4311C21.9378 12.4884 21.9089 12.6019 21.9089 12.6867V12.7154L21.7381 12.8862C22.1952 13.5956 22.5392 14.3911 22.7388 15.214C22.9108 16.0369 22.9673 16.8885 22.8531 17.7114L23.0816 17.7688C23.0992 17.8139 23.1263 17.8549 23.1609 17.8891C23.1955 17.9232 23.2369 17.9498 23.2825 17.967C23.5963 18.0518 23.9391 18.1092 24.253 18.1378H24.2819C24.3362 18.1604 24.3952 18.1697 24.4539 18.1653C24.5681 18.1653 24.6824 18.1653 24.7954 18.194C24.8531 18.194 24.9109 18.194 24.9109 18.2226C24.9109 18.2501 24.9385 18.2501 24.9674 18.2501C25.1057 18.283 25.2299 18.3585 25.3223 18.4658C25.4148 18.573 25.4707 18.7066 25.4822 18.8473C25.4391 18.9631 25.3616 19.0632 25.2601 19.1344C25.1586 19.2056 25.0377 19.2446 24.9134 19.2463ZM9.99374 12.6642C9.9928 12.6723 9.99112 12.6802 9.98872 12.6879V12.6593L9.99374 12.6642ZM13.5055 18.1665L10.6755 18.649C11.0859 19.7888 11.8584 20.7651 12.8765 21.4307L13.9625 18.8186C13.9878 18.7761 14.0034 18.7287 14.0082 18.6795C14.013 18.6304 14.0068 18.5808 13.9902 18.5343C13.9625 18.3099 13.734 18.1665 13.5055 18.1665ZM14.5916 14.5333C14.8489 14.5333 15.0775 14.335 15.0775 14.0794L15.2206 11.2404L14.6481 11.3538C13.6456 11.588 12.7263 12.0889 11.9888 12.8026L14.3618 14.4771C14.3815 14.4834 14.3997 14.4897 14.417 14.4957C14.4761 14.5161 14.5256 14.5333 14.5916 14.5333ZM13.3335 16.3786C13.3739 16.3324 13.4046 16.2787 13.4237 16.2205C13.4428 16.1623 13.4499 16.101 13.4446 16.04C13.4394 15.9791 13.4218 15.9198 13.393 15.8657C13.3642 15.8116 13.3248 15.7639 13.277 15.7252L11.1614 13.8512C10.5371 14.8954 10.2476 16.1035 10.3315 17.3149L13.105 16.5207C13.2192 16.492 13.277 16.4633 13.3335 16.3786ZM15.1628 17.3723L15.9363 17.7414L16.7072 17.3723L16.908 16.5481L16.3644 15.8674H15.5069L14.9632 16.5481L15.1628 17.3723ZM16.8503 14.335C16.9934 14.5333 17.2784 14.5619 17.4781 14.4485L19.8222 12.8026C18.9532 11.9402 17.8132 11.399 16.5916 11.269L16.7637 14.1368C16.7635 14.174 16.7711 14.2108 16.786 14.2449C16.8009 14.2791 16.8228 14.3097 16.8503 14.335ZM15.7999 19.3384C15.905 19.3176 16.0141 19.3353 16.107 19.3884C16.1924 19.4445 16.2501 19.5019 16.3368 19.5879L17.7091 22.0579C17.5371 22.0866 17.3651 22.1152 17.1654 22.1714C16.7649 22.2574 16.3644 22.3135 15.9363 22.3135C15.3361 22.3135 14.7071 22.1988 14.1345 22.0292L15.5357 19.5019C15.6009 19.4174 15.6948 19.3593 15.7999 19.3384ZM18.5378 15.7813L20.6822 13.8512C20.9974 14.3703 21.2283 14.9354 21.3665 15.5257C21.5041 16.1117 21.5431 16.7163 21.482 17.3149L18.7663 16.5481C18.5089 16.492 18.3657 16.2364 18.4235 15.9808C18.4435 15.9056 18.4829 15.8369 18.5378 15.7813ZM17.8513 18.4184C17.8984 18.3195 17.9792 18.2405 18.0795 18.1952C18.162 18.1627 18.2494 18.1442 18.3381 18.1403L21.197 18.6229C21.0526 19.0194 20.8819 19.3897 20.6534 19.7014C20.2169 20.3892 19.6309 20.9711 18.9383 21.4046L17.8221 18.7351C17.7938 18.6294 17.8042 18.5172 17.8513 18.4184Z" fill="white"/>
</svg>
